<svg width="250" height="71" viewBox="0 0 250 71" fill="none" xmlns="http://www.w3.org/2000/svg">
<path d="M39.304 37.4851C39.304 36.7251 38.904 36.0211 38.248 35.6451L20.712 25.5571C20.416 25.3811 20.08 25.2931 19.744 25.2771C19.712 25.2771 19.584 25.2771 19.56 25.2771C19.224 25.2931 18.896 25.3811 18.592 25.5571L1.064 35.6451C0.408 36.0211 0 36.7251 0 37.4851L0.04 64.6531C0.04 65.0291 0.24 65.3811 0.568 65.5651C0.896 65.7571 1.296 65.7571 1.624 65.5651L12.04 59.5971C12.696 59.2051 13.096 58.5171 13.096 57.7571V45.0611C13.096 44.3091 13.496 43.6051 14.152 43.2291L18.592 40.6771C18.92 40.4851 19.28 40.3971 19.656 40.3971C20.016 40.3971 20.384 40.4931 20.712 40.6771L25.144 43.2291C25.8 43.6051 26.2 44.3091 26.2 45.0611V57.7571C26.2 58.5171 26.608 59.2051 27.264 59.5971L37.68 65.5651C38.008 65.7571 38.416 65.7571 38.736 65.5651C39.056 65.3811 39.264 65.0291 39.264 64.6531L39.304 37.4851ZM132.92 0.133144C132.592 -0.0508559 132.192 -0.042857 131.872 0.149143C131.552 0.341143 131.352 0.685146 131.352 1.06115V27.9651C131.352 28.2291 131.208 28.4771 130.984 28.6051C130.76 28.7331 130.472 28.7411 130.24 28.6051L125.848 26.0771C125.192 25.7011 124.384 25.7011 123.728 26.0771L106.192 36.1971C105.536 36.5731 105.128 37.2771 105.128 38.0291V58.2771C105.128 59.0371 105.528 59.7331 106.184 60.1091L123.72 70.2371C124.376 70.6131 125.184 70.6131 125.84 70.2371L143.384 60.1091C144.04 59.7251 144.44 59.0291 144.44 58.2771V7.80514C144.44 7.03714 144.024 6.33314 143.352 5.95714L132.912 0.133144H132.92ZM131.296 51.6291C131.296 51.8211 131.2 51.9971 131.032 52.0851L125.008 55.5571C124.848 55.6531 124.64 55.6531 124.48 55.5571L118.456 52.0851C118.288 51.9891 118.192 51.8131 118.192 51.6291V44.6771C118.192 44.4851 118.296 44.3091 118.456 44.2211L124.48 40.7411C124.64 40.6451 124.848 40.6451 125.008 40.7411L131.032 44.2211C131.192 44.3171 131.296 44.4931 131.296 44.6771V51.6291ZM195.672 44.4931C196.32 44.1171 196.728 43.4211 196.728 42.6611V37.7571C196.728 36.9971 196.328 36.3091 195.672 35.9251L178.248 25.8051C177.592 25.4211 176.784 25.4211 176.128 25.8051L158.592 35.9251C157.936 36.3011 157.536 37.0051 157.536 37.7571V57.9972C157.536 58.7572 157.944 59.4611 158.608 59.8371L176.032 69.7651C176.672 70.1331 177.464 70.1331 178.112 69.7731L188.648 63.9171C188.976 63.7331 189.184 63.3812 189.192 62.9972C189.2 62.6132 188.992 62.2611 188.664 62.0691L171.016 51.9412C170.688 51.7572 170.488 51.4051 170.488 51.0211V44.6771C170.488 44.3011 170.688 43.9491 171.016 43.7571L176.512 40.5971C176.84 40.4131 177.24 40.4131 177.568 40.5971L183.064 43.7571C183.392 43.9491 183.592 44.2931 183.592 44.6771V49.6691C183.592 50.0451 183.792 50.3971 184.12 50.5891C184.448 50.7811 184.856 50.7731 185.184 50.5891L195.68 44.4851L195.672 44.4931ZM71.2 25.7011C71.856 25.3251 72.664 25.3251 73.32 25.7011L90.856 35.8211C91.512 36.1971 91.912 36.8931 91.912 37.6531V57.9091C91.912 58.6691 91.504 59.3651 90.856 59.7411L73.32 69.8691C72.664 70.2451 71.856 70.2451 71.2 69.8691L53.664 59.7411C53.008 59.3651 52.608 58.6611 52.608 57.9091V37.6531C52.608 36.8931 53.008 36.1971 53.664 35.8211L71.2 25.7011ZM229.72 70.1571C229.12 70.1571 228.512 69.9971 227.984 69.6931L222.464 66.4291C221.64 65.9651 222.048 65.8051 222.312 65.7091C223.408 65.3251 223.632 65.2371 224.808 64.5731C224.928 64.5011 225.096 64.5331 225.224 64.6051L229.464 67.1251C229.616 67.2131 229.832 67.2131 229.976 67.1251L246.512 57.5812C246.664 57.4932 246.76 57.3171 246.76 57.1331V38.0451C246.76 37.8611 246.664 37.6851 246.504 37.5891L229.976 28.0531C229.824 27.9651 229.616 27.9651 229.464 28.0531L212.936 37.5891C212.776 37.6771 212.672 37.8611 212.672 38.0451V57.1331C212.672 57.3171 212.776 57.4851 212.928 57.5731L217.456 60.1891C219.912 61.4211 221.416 59.9731 221.416 58.5171V39.6771C221.416 39.4131 221.632 39.2051 221.896 39.2051H223.992C224.256 39.2051 224.472 39.4131 224.472 39.6771V58.5171C224.472 61.7971 222.688 63.6771 219.576 63.6771C218.624 63.6771 217.864 63.6771 215.768 62.6451L211.432 60.1491C210.36 59.5331 209.696 58.3731 209.696 57.1331V38.0451C209.696 36.8051 210.36 35.6451 211.432 35.0291L227.968 25.4771C229.016 24.8851 230.408 24.8851 231.44 25.4771L247.976 35.0291C249.048 35.6451 249.712 36.8051 249.712 38.0451V57.1331C249.712 58.3731 249.048 59.5251 247.976 60.1491L231.44 69.6931C230.912 69.9971 230.312 70.1571 229.696 70.1571H229.72ZM234.832 57.0131C227.592 57.0131 226.08 53.6931 226.08 50.9011C226.08 50.6371 226.288 50.4291 226.56 50.4291H228.696C228.936 50.4291 229.136 50.6051 229.168 50.8371C229.488 53.0131 230.448 54.1171 234.832 54.1171C238.312 54.1171 239.8 53.3251 239.8 51.4851C239.8 50.4211 239.384 49.6291 233.968 49.1011C229.448 48.6531 226.648 47.6531 226.648 44.0371C226.648 40.7011 229.464 38.7091 234.176 38.7091C239.472 38.7091 242.096 40.5491 242.424 44.4931C242.44 44.6291 242.392 44.7571 242.296 44.8611C242.2 44.9651 242.08 45.0131 241.944 45.0131H239.8C239.576 45.0131 239.384 44.8531 239.336 44.6371C238.824 42.3491 237.568 41.6131 234.176 41.6131C230.376 41.6131 229.928 42.9411 229.928 43.9331C229.928 45.1411 230.448 45.4851 235.584 46.1651C240.664 46.8371 243.08 47.7892 243.08 51.3572C243.08 54.9572 240.08 57.0211 234.84 57.0211L234.832 57.0131ZM176.92 43.5491C177.048 43.4771 177.2 43.4771 177.328 43.5491L180.696 45.4931C180.824 45.5651 180.904 45.7011 180.904 45.8451V49.7331C180.904 49.8771 180.824 50.0131 180.696 50.0851L177.328 52.0291C177.2 52.1011 177.048 52.1011 176.92 52.0291L173.56 50.0851C173.432 50.0131 173.36 49.8771 173.36 49.7331V45.8451C173.36 45.7011 173.44 45.5651 173.56 45.4931L176.92 43.5491Z" fill="white" stroke="black" stroke-width="0.00256"/>
</svg>
